<!-- Generated by IcoMoon.io -->
<svg version="1.1" xmlns="http://www.w3.org/2000/svg" width="1024" height="1024" viewBox="0 0 1024 1024">
<g id="icomoon-ignore">
</g>
<path fill="none" stroke="#000" stroke-width="85.3333" stroke-miterlimit="4" stroke-linecap="round" stroke-linejoin="round" d="M938.671 721.92v128c0.047 11.883-2.389 23.646-7.147 34.534-4.762 10.889-11.742 20.659-20.501 28.693-8.755 8.034-19.093 14.148-30.349 17.954-11.255 3.81-23.185 5.222-35.017 4.151-131.294-14.263-257.408-59.127-368.213-130.987-103.092-65.506-190.494-152.909-256.002-256-72.108-111.309-116.982-238.036-130.987-369.918-1.066-11.799 0.336-23.69 4.117-34.918s9.859-21.544 17.846-30.293c7.987-8.75 17.708-15.74 28.545-20.527s22.551-7.264 34.398-7.276h128c20.706-0.204 40.78 7.128 56.48 20.631s25.955 32.252 28.852 52.756c5.403 40.963 15.422 81.183 29.867 119.893 5.74 15.271 6.983 31.868 3.58 47.824s-11.308 30.602-22.78 42.202l-54.186 54.187c60.738 106.819 149.181 195.262 256.002 255.998l54.187-54.187c11.597-11.469 26.244-19.375 42.202-22.78 15.953-3.401 32.55-2.159 47.825 3.58 38.707 14.447 78.929 24.465 119.893 29.867 20.723 2.927 39.654 13.363 53.184 29.333s20.719 36.356 20.203 57.28z"></path>
</svg>
